# xmcd
#
# Track frame offsets: 
#        150
#        19110
#        34145
#        62925
#
# Disc length: 1412 seconds
#
# Revision: 0
# Processed by: cddbd v1.5.1PL2 Copyright (c) Steve Scherf et al.
# Submitted via: ExactAudioCopy v0.95b3
#
DISCID=2f058204
DTITLE=Lifehouse - Breathing [CD Single)
DYEAR=2002
DGENRE=Rock
TTITLE0=Breathing (Radio Remix)
TTITLE1=Hanging By A Moment (Acoustic Version)
TTITLE2=Trying (Album Version)
TTITLE3=Data Track
EXTD=
EXTT0=
EXTT1=
EXTT2=
EXTT3=
PLAYORDER=
